<mxfile host="app.diagrams.net" agent="Mozilla/5.0 (Windows NT 6.1; WOW64) AppleWebKit/537.36 (KHTML, like Gecko) Chrome/109.0.0.0 Safari/537.36 OPR/95.0.0.0" version="24.9.3">
  <diagram name="Страница — 1" id="RdBgI4wqDLDlI2JXN49p">
    <mxGraphModel dx="961" dy="1704" grid="1" gridSize="10" guides="1" tooltips="1" connect="1" arrows="1" fold="1" page="1" pageScale="1" pageWidth="827" pageHeight="1169" math="0" shadow="0">
      <root>
        <mxCell id="0" />
        <mxCell id="1" parent="0" />
        <mxCell id="7nFQlLrqx_a0SUcE6rda-7" value="ИТ-поддержка" style="swimlane;html=1;childLayout=stackLayout;resizeParent=1;resizeParentMax=0;horizontal=1;startSize=20;horizontalStack=0;whiteSpace=wrap;fillColor=#ffff88;strokeColor=#36393d;" vertex="1" parent="1">
          <mxGeometry x="160" y="-20" width="1400" height="630" as="geometry" />
        </mxCell>
        <mxCell id="7nFQlLrqx_a0SUcE6rda-9" value="Битрикс 24" style="swimlane;html=1;startSize=20;horizontal=0;" vertex="1" parent="7nFQlLrqx_a0SUcE6rda-7">
          <mxGeometry y="20" width="1400" height="250" as="geometry" />
        </mxCell>
        <mxCell id="7nFQlLrqx_a0SUcE6rda-3" value="" style="edgeStyle=orthogonalEdgeStyle;rounded=0;orthogonalLoop=1;jettySize=auto;html=1;entryX=0;entryY=0.5;entryDx=0;entryDy=0;entryPerimeter=0;" edge="1" parent="7nFQlLrqx_a0SUcE6rda-9" source="7nFQlLrqx_a0SUcE6rda-1" target="7nFQlLrqx_a0SUcE6rda-4">
          <mxGeometry relative="1" as="geometry">
            <mxPoint x="120" y="133" as="targetPoint" />
          </mxGeometry>
        </mxCell>
        <mxCell id="7nFQlLrqx_a0SUcE6rda-1" value="Требование&lt;div&gt;пользователя&lt;/div&gt;" style="points=[[0.145,0.145,0],[0.5,0,0],[0.855,0.145,0],[1,0.5,0],[0.855,0.855,0],[0.5,1,0],[0.145,0.855,0],[0,0.5,0]];shape=mxgraph.bpmn.event;html=1;verticalLabelPosition=bottom;labelBackgroundColor=#ffffff;verticalAlign=top;align=center;perimeter=ellipsePerimeter;outlineConnect=0;aspect=fixed;outline=standard;symbol=general;fillColor=#66FF66;" vertex="1" parent="7nFQlLrqx_a0SUcE6rda-9">
          <mxGeometry x="40" y="113" width="40" height="40" as="geometry" />
        </mxCell>
        <mxCell id="7nFQlLrqx_a0SUcE6rda-13" style="edgeStyle=orthogonalEdgeStyle;rounded=0;orthogonalLoop=1;jettySize=auto;html=1;" edge="1" parent="7nFQlLrqx_a0SUcE6rda-9" source="7nFQlLrqx_a0SUcE6rda-4" target="7nFQlLrqx_a0SUcE6rda-12">
          <mxGeometry relative="1" as="geometry" />
        </mxCell>
        <mxCell id="7nFQlLrqx_a0SUcE6rda-4" value="Создать задачу" style="points=[[0.25,0,0],[0.5,0,0],[0.75,0,0],[1,0.25,0],[1,0.5,0],[1,0.75,0],[0.75,1,0],[0.5,1,0],[0.25,1,0],[0,0.75,0],[0,0.5,0],[0,0.25,0]];shape=mxgraph.bpmn.task;whiteSpace=wrap;rectStyle=rounded;size=10;html=1;container=1;expand=0;collapsible=0;taskMarker=user;" vertex="1" parent="7nFQlLrqx_a0SUcE6rda-9">
          <mxGeometry x="130" y="103" width="120" height="60" as="geometry" />
        </mxCell>
        <mxCell id="7nFQlLrqx_a0SUcE6rda-12" value="Создать БП&amp;nbsp;&lt;div&gt;ИТ-поддержка&lt;/div&gt;" style="points=[[0.25,0,0],[0.5,0,0],[0.75,0,0],[1,0.25,0],[1,0.5,0],[1,0.75,0],[0.75,1,0],[0.5,1,0],[0.25,1,0],[0,0.75,0],[0,0.5,0],[0,0.25,0]];shape=mxgraph.bpmn.task;whiteSpace=wrap;rectStyle=rounded;size=10;html=1;container=1;expand=0;collapsible=0;taskMarker=script;fillColor=#CCE5FF;" vertex="1" parent="7nFQlLrqx_a0SUcE6rda-9">
          <mxGeometry x="300" y="103" width="120" height="60" as="geometry" />
        </mxCell>
        <mxCell id="7nFQlLrqx_a0SUcE6rda-19" value="&amp;nbsp; - Наименование&lt;div&gt;&amp;nbsp; - Постановщик&lt;/div&gt;&lt;div&gt;&amp;nbsp; - Исполнитель&lt;/div&gt;" style="shape=mxgraph.bpmn.data;labelPosition=right;verticalLabelPosition=middle;align=left;verticalAlign=middle;size=9;html=1;" vertex="1" parent="7nFQlLrqx_a0SUcE6rda-9">
          <mxGeometry x="230" y="20" width="40" height="60" as="geometry" />
        </mxCell>
        <mxCell id="7nFQlLrqx_a0SUcE6rda-20" style="rounded=0;orthogonalLoop=1;jettySize=auto;html=1;entryX=0;entryY=0.5;entryDx=0;entryDy=0;entryPerimeter=0;endArrow=none;endFill=0;dashed=1;dashPattern=12 12;" edge="1" parent="7nFQlLrqx_a0SUcE6rda-9" source="7nFQlLrqx_a0SUcE6rda-4" target="7nFQlLrqx_a0SUcE6rda-19">
          <mxGeometry relative="1" as="geometry" />
        </mxCell>
        <mxCell id="7nFQlLrqx_a0SUcE6rda-8" value="СППР" style="swimlane;html=1;startSize=20;horizontal=0;fillColor=#ffff88;strokeColor=#36393d;" vertex="1" parent="7nFQlLrqx_a0SUcE6rda-7">
          <mxGeometry y="270" width="1400" height="260" as="geometry" />
        </mxCell>
        <mxCell id="7nFQlLrqx_a0SUcE6rda-16" value="Создать Идею" style="points=[[0.25,0,0],[0.5,0,0],[0.75,0,0],[1,0.25,0],[1,0.5,0],[1,0.75,0],[0.75,1,0],[0.5,1,0],[0.25,1,0],[0,0.75,0],[0,0.5,0],[0,0.25,0]];shape=mxgraph.bpmn.task;whiteSpace=wrap;rectStyle=rounded;size=10;html=1;container=1;expand=0;collapsible=0;taskMarker=script;fillColor=#ffff88;strokeColor=#36393d;" vertex="1" parent="7nFQlLrqx_a0SUcE6rda-8">
          <mxGeometry x="400" y="169" width="120" height="60" as="geometry" />
        </mxCell>
        <mxCell id="7nFQlLrqx_a0SUcE6rda-21" value="&amp;nbsp; - Наименование&lt;div&gt;&amp;nbsp; - Проект: УТ&lt;br&gt;&lt;div&gt;&amp;nbsp; - Раздел: Новые требования&lt;/div&gt;&lt;div&gt;&amp;nbsp; - Ответственный: Исполнитель&lt;/div&gt;&lt;div&gt;&amp;nbsp; - Зарегистрировал: Исполнитель&lt;br&gt;&lt;/div&gt;&lt;div&gt;&amp;nbsp; - Источник:&amp;nbsp;Bitix24&lt;/div&gt;&lt;div&gt;&amp;nbsp; - Важность: Средняя/высокая&lt;/div&gt;&lt;div&gt;&amp;nbsp; - Статус:&amp;nbsp;Зарегистрирована&lt;/div&gt;&lt;div&gt;&lt;font color=&quot;#ff0000&quot;&gt;&amp;nbsp; - К просмотру&lt;/font&gt;&lt;/div&gt;&lt;/div&gt;" style="shape=mxgraph.bpmn.data;labelPosition=right;verticalLabelPosition=middle;align=left;verticalAlign=middle;size=9;html=1;fillColor=#ffff88;strokeColor=#36393d;" vertex="1" parent="7nFQlLrqx_a0SUcE6rda-8">
          <mxGeometry x="480" y="50" width="40" height="60" as="geometry" />
        </mxCell>
        <mxCell id="7nFQlLrqx_a0SUcE6rda-22" style="rounded=0;orthogonalLoop=1;jettySize=auto;html=1;entryX=0.044;entryY=0.428;entryDx=0;entryDy=0;entryPerimeter=0;dashed=1;endArrow=none;endFill=0;" edge="1" parent="7nFQlLrqx_a0SUcE6rda-8" source="7nFQlLrqx_a0SUcE6rda-16" target="7nFQlLrqx_a0SUcE6rda-21">
          <mxGeometry relative="1" as="geometry" />
        </mxCell>
        <mxCell id="7nFQlLrqx_a0SUcE6rda-24" style="edgeStyle=orthogonalEdgeStyle;rounded=0;orthogonalLoop=1;jettySize=auto;html=1;entryX=0;entryY=0.5;entryDx=0;entryDy=0;entryPerimeter=0;" edge="1" parent="7nFQlLrqx_a0SUcE6rda-8" source="7nFQlLrqx_a0SUcE6rda-16">
          <mxGeometry relative="1" as="geometry">
            <mxPoint x="760" y="199" as="targetPoint" />
          </mxGeometry>
        </mxCell>
        <mxCell id="7nFQlLrqx_a0SUcE6rda-25" value="Обработать Идею" style="points=[[0.25,0,0],[0.5,0,0],[0.75,0,0],[1,0.25,0],[1,0.5,0],[1,0.75,0],[0.75,1,0],[0.5,1,0],[0.25,1,0],[0,0.75,0],[0,0.5,0],[0,0.25,0]];shape=mxgraph.bpmn.task;whiteSpace=wrap;rectStyle=rounded;size=10;html=1;container=1;expand=0;collapsible=0;taskMarker=user;fillColor=#ffff88;strokeColor=#36393d;" vertex="1" parent="7nFQlLrqx_a0SUcE6rda-8">
          <mxGeometry x="760" y="170" width="120" height="60" as="geometry" />
        </mxCell>
        <mxCell id="7nFQlLrqx_a0SUcE6rda-26" value="&amp;nbsp; - Подробное описание&lt;div&gt;&lt;div&gt;&amp;nbsp; - Раздел:&amp;nbsp;&lt;/div&gt;&lt;div&gt;&amp;nbsp; - Ответственный:&amp;nbsp;&lt;/div&gt;&lt;div&gt;&lt;span style=&quot;background-color: initial;&quot;&gt;&amp;nbsp; - Источник:&amp;nbsp;Bitix24&lt;/span&gt;&lt;br&gt;&lt;/div&gt;&lt;div&gt;&amp;nbsp; - Важность:&amp;nbsp;&lt;/div&gt;&lt;div&gt;&amp;nbsp; - Статус:&amp;nbsp;&lt;/div&gt;&lt;div&gt;&lt;font color=&quot;#ff0000&quot;&gt;&amp;nbsp; - К просмотру - ЛОЖЬ&lt;/font&gt;&lt;/div&gt;&lt;/div&gt;" style="shape=mxgraph.bpmn.data;labelPosition=right;verticalLabelPosition=middle;align=left;verticalAlign=middle;size=9;html=1;fillColor=#ffff88;strokeColor=#36393d;" vertex="1" parent="7nFQlLrqx_a0SUcE6rda-8">
          <mxGeometry x="880" y="50" width="40" height="60" as="geometry" />
        </mxCell>
        <mxCell id="7nFQlLrqx_a0SUcE6rda-10" value="SCRUM" style="swimlane;html=1;startSize=20;horizontal=0;" vertex="1" parent="7nFQlLrqx_a0SUcE6rda-7">
          <mxGeometry y="530" width="1400" height="100" as="geometry" />
        </mxCell>
        <mxCell id="7nFQlLrqx_a0SUcE6rda-15" value="" style="edgeStyle=orthogonalEdgeStyle;rounded=0;orthogonalLoop=1;jettySize=auto;html=1;entryX=0;entryY=0.5;entryDx=0;entryDy=0;entryPerimeter=0;" edge="1" parent="7nFQlLrqx_a0SUcE6rda-7" source="7nFQlLrqx_a0SUcE6rda-12" target="7nFQlLrqx_a0SUcE6rda-16">
          <mxGeometry relative="1" as="geometry">
            <mxPoint x="360" y="250" as="targetPoint" />
          </mxGeometry>
        </mxCell>
      </root>
    </mxGraphModel>
  </diagram>
</mxfile>
